<svg xmlns="http://www.w3.org/2000/svg"  viewBox="0 0 100 100" width="200px" height="200px"><g><path fill="#c7ede6" d="M87.212,57.157c1.135-2.155,1.785-4.605,1.785-7.21c0-6.621-4.159-12.257-10.001-14.478 c0-0.008,0.001-0.015,0.001-0.022c0-11.598-9.402-21-21-21c-9.784,0-17.981,6.701-20.313,15.757 c-1.476-0.485-3.048-0.757-4.687-0.757c-7.692,0-14.023,5.793-14.89,13.252c-5.204,1.1-9.11,5.716-9.11,11.248 c0,6.351,5.149,11.5,11.5,11.5c0.177,0,0.352-0.012,0.526-0.022c-0.004,0.175-0.026,0.346-0.026,0.522 c0,11.322,9.178,20.5,20.5,20.5c6.437,0,12.175-2.972,15.934-7.614c2.178,2.225,5.207,3.614,8.566,3.614 c4.65,0,8.674-2.65,10.666-6.518c1.052,0.334,2.171,0.518,3.334,0.518c6.075,0,11-4.925,11-11 C90.997,62.136,89.527,59.173,87.212,57.157z"/><path fill="#fdfcef" d="M69,37h-6.003c-2.485-0.053-4.5-2.068-4.5-4.553c0-2.333,1.782-4.229,4.055-4.455 c-0.022-0.181-0.055-0.358-0.055-0.545c0-2.485,2.015-4.5,4.5-4.5c1.438,0,2.703,0.686,3.527,1.736 c0.14-2.636,2.302-4.736,4.973-4.736c2.761,0,5,2.239,5,5c0,0.446-0.077,0.87-0.187,1.282c0.642-0.777,1.6-1.282,2.687-1.282 c1.781,0,3.234,1.335,3.455,3.055c0.181-0.022,0.358-0.055,0.545-0.055c2.485,0,4.5,2.015,4.5,4.5s-2.015,4.5-4.5,4.553h-9.5H72 v1h-3V37z"/><path fill="#472b29" d="M75.5,19c3.033,0,5.5,2.467,5.5,5.5c0,0.016,0,0.031,0,0.047C81.602,24.192,82.29,24,83,24 c1.831,0,3.411,1.261,3.858,3.005C86.905,27.002,86.952,27,87,27c3.099,0,5.549,2.834,4.893,6.047 C91.413,35.398,89.204,37,86.804,37l-14.679,0c-0.276,0-0.5-0.224-0.5-0.5s0.224-0.5,0.5-0.5l14.718,0 c1.92,0,3.687-1.282,4.071-3.163C91.439,30.267,89.479,28,87,28c-0.117,0-0.23,0.017-0.343,0.032l-0.141,0.019 c-0.021,0.003-0.041,0.004-0.062,0.004c-0.246,0-0.462-0.185-0.495-0.437C85.768,26.125,84.496,25,83,25 c-0.885,0-1.723,0.401-2.301,1.1c-0.098,0.118-0.241,0.182-0.386,0.182c-0.078,0-0.156-0.018-0.228-0.056 c-0.209-0.107-0.314-0.346-0.254-0.573c0.16-0.6,0.202-1.069,0.147-1.549c-0.24-2.127-1.959-3.909-4.092-4.088 c-2.551-0.215-4.725,1.728-4.859,4.246c-0.011,0.208-0.15,0.387-0.349,0.45c-0.05,0.016-0.101,0.024-0.152,0.024 c-0.15,0-0.296-0.069-0.392-0.192C69.362,23.563,68.221,23,67,23c-2.206,0-4,1.794-4,4c0,0.117,0.017,0.23,0.032,0.343 l0.019,0.141c0.016,0.134-0.022,0.268-0.106,0.373c-0.084,0.105-0.207,0.172-0.34,0.185c-2.352,0.234-4.042,2.429-3.504,4.865 C59.509,34.76,61.275,36,63.173,36l5.952,0c0.276,0,0.5,0.224,0.5,0.5s-0.224,0.5-0.5,0.5l-5.938,0 c-2.467,0-4.708-1.704-5.115-4.138c-0.462-2.763,1.344-5.22,3.931-5.74C62.001,27.082,62,27.041,62,27c0-2.757,2.243-5,5-5 c1.176,0,2.293,0.416,3.183,1.164C70.781,20.76,72.945,19,75.5,19L75.5,19z"/><path fill="#472b29" d="M76.997,26.447c1.403,0,2.609,0.999,2.913,2.341c0.367-0.222,0.786-0.341,1.212-0.341 c1.202,0,2.198,0.897,2.353,2.068c0.203-0.045,0.396-0.068,0.585-0.068c1.529,0,2.811,1.2,2.918,2.732 c0.009,0.138-0.094,0.257-0.232,0.267c-0.006,0-0.012,0-0.018,0c-0.13,0-0.24-0.101-0.249-0.232 c-0.089-1.271-1.151-2.268-2.419-2.268c-0.229,0-0.47,0.042-0.738,0.127c-0.022,0.007-0.045,0.01-0.067,0.01 c-0.055,0-0.11-0.02-0.156-0.054c-0.064-0.047-0.102-0.129-0.102-0.209c0-1.034-0.841-1.875-1.875-1.875 c-0.447,0-0.885,0.168-1.231,0.473c-0.047,0.041-0.106,0.063-0.165,0.063c-0.032,0-0.063-0.006-0.093-0.019 c-0.088-0.035-0.148-0.117-0.155-0.212c-0.102-1.292-1.191-2.305-2.479-2.305c-0.208,0-0.425,0.034-0.682,0.107 c-0.023,0.007-0.047,0.01-0.07,0.01c-0.109,0-0.207-0.073-0.239-0.182c-0.038-0.133,0.039-0.271,0.172-0.309 C76.48,26.487,76.741,26.447,76.997,26.447L76.997,26.447z"/><path fill="#fff" d="M15.402,49H5.497c-0.276,0-0.5-0.224-0.5-0.5s0.224-0.5,0.5-0.5h9.905c0.276,0,0.5,0.224,0.5,0.5 S15.679,49,15.402,49z"/><path fill="#fff" d="M18.497,49h-1c-0.276,0-0.5-0.224-0.5-0.5s0.224-0.5,0.5-0.5h1c0.276,0,0.5,0.224,0.5,0.5 S18.774,49,18.497,49z"/><path fill="#fff" d="M23.488,51h-8.991c-0.276,0-0.5-0.224-0.5-0.5s0.224-0.5,0.5-0.5h8.991c0.276,0,0.5,0.224,0.5,0.5 S23.764,51,23.488,51z"/><path fill="#fff" d="M12.497,51h-1c-0.276,0-0.5-0.224-0.5-0.5s0.224-0.5,0.5-0.5h1c0.276,0,0.5,0.224,0.5,0.5 S12.774,51,12.497,51z"/><path fill="#fff" d="M9.497,51h-2c-0.276,0-0.5-0.224-0.5-0.5s0.224-0.5,0.5-0.5h2c0.276,0,0.5,0.224,0.5,0.5 S9.774,51,9.497,51z"/><path fill="#fff" d="M15.497,53h-2c-0.276,0-0.5-0.224-0.5-0.5s0.224-0.5,0.5-0.5h2c0.276,0,0.5,0.224,0.5,0.5 S15.773,53,15.497,53z"/><path fill="#fff" d="M18.497,44c-0.177,0-0.823,0-1,0c-0.276,0-0.5,0.224-0.5,0.5c0,0.276,0.224,0.5,0.5,0.5 c0.177,0,0.823,0,1,0c0.276,0,0.5-0.224,0.5-0.5C18.997,44.224,18.773,44,18.497,44z"/><path fill="#fff" d="M18.497,46c-0.177,0-4.823,0-5,0c-0.276,0-0.5,0.224-0.5,0.5c0,0.276,0.224,0.5,0.5,0.5 c0.177,0,4.823,0,5,0c0.276,0,0.5-0.224,0.5-0.5C18.997,46.224,18.773,46,18.497,46z"/><path fill="#fff" d="M23.497,48c-0.177,0-2.823,0-3,0c-0.276,0-0.5,0.224-0.5,0.5c0,0.276,0.224,0.5,0.5,0.5 c0.177,0,2.823,0,3,0c0.276,0,0.5-0.224,0.5-0.5C23.997,48.224,23.773,48,23.497,48z"/><path fill="#fff" d="M89.497,66h-10c-0.276,0-0.5-0.224-0.5-0.5s0.224-0.5,0.5-0.5h10c0.276,0,0.5,0.224,0.5,0.5 S89.773,66,89.497,66z"/><path fill="#fff" d="M93.497,66h-2c-0.276,0-0.5-0.224-0.5-0.5s0.224-0.5,0.5-0.5h2c0.276,0,0.5,0.224,0.5,0.5 S93.773,66,93.497,66z"/><path fill="#fff" d="M98.497,68h-10c-0.276,0-0.5-0.224-0.5-0.5s0.224-0.5,0.5-0.5h10c0.276,0,0.5,0.224,0.5,0.5 S98.774,68,98.497,68z"/><path fill="#fff" d="M86.497,68h-1c-0.276,0-0.5-0.224-0.5-0.5s0.224-0.5,0.5-0.5h1c0.276,0,0.5,0.224,0.5,0.5 S86.773,68,86.497,68z"/><path fill="#fff" d="M83.372,68h-1.875c-0.276,0-0.5-0.224-0.5-0.5s0.224-0.5,0.5-0.5h1.875c0.276,0,0.5,0.224,0.5,0.5 S83.648,68,83.372,68z"/><path fill="#fff" d="M92.497,64h-5c-0.276,0-0.5-0.224-0.5-0.5s0.224-0.5,0.5-0.5h5c0.276,0,0.5,0.224,0.5,0.5 S92.774,64,92.497,64z"/><path fill="#fff" d="M89.497,70h-2c-0.276,0-0.5-0.224-0.5-0.5s0.224-0.5,0.5-0.5h2c0.276,0,0.5,0.224,0.5,0.5 S89.773,70,89.497,70z"/><path fill="#fdfcef" d="M69.208,75H35.792C33.145,75,31,72.855,31,70.208V36.792C31,34.145,33.145,32,35.792,32h33.417 C71.855,32,74,34.145,74,36.792v33.417C74,72.855,71.855,75,69.208,75z"/><circle cx="42" cy="42" r="3" fill="#3678ba"/><path fill="#472b29" d="M41.994,45.251c-0.624,0-1.234-0.18-1.769-0.529c-0.727-0.474-1.226-1.203-1.405-2.053 c-0.179-0.85-0.016-1.718,0.458-2.445c0.474-0.727,1.203-1.226,2.053-1.405c0.848-0.179,1.717-0.016,2.445,0.458 c0.727,0.474,1.226,1.203,1.405,2.053c0.179,0.85,0.016,1.718-0.458,2.445v0c-0.474,0.727-1.203,1.226-2.053,1.405 C42.445,45.228,42.218,45.251,41.994,45.251z M42.005,39.249c-0.19,0-0.381,0.02-0.572,0.06c-0.719,0.151-1.336,0.573-1.737,1.189 c-0.401,0.615-0.539,1.35-0.388,2.069c0.151,0.719,0.574,1.336,1.189,1.737c0.615,0.401,1.348,0.539,2.068,0.388 c0.719-0.151,1.336-0.573,1.737-1.189v0c0.401-0.615,0.539-1.35,0.388-2.069c-0.151-0.719-0.574-1.336-1.189-1.737 C43.05,39.402,42.533,39.249,42.005,39.249z"/><path fill="#472b29" d="M41.99,46.913c-0.942,0-1.865-0.272-2.673-0.799c-0.116-0.075-0.148-0.23-0.073-0.346 c0.076-0.116,0.23-0.148,0.346-0.073c0.985,0.643,2.163,0.865,3.318,0.622c1.153-0.243,2.143-0.92,2.786-1.907 c0.644-0.987,0.865-2.166,0.622-3.319c-0.243-1.153-0.92-2.143-1.907-2.786c-1.208-0.788-2.729-0.935-4.066-0.394 c-0.13,0.052-0.274-0.01-0.326-0.138c-0.052-0.128,0.01-0.274,0.138-0.325c1.489-0.602,3.182-0.438,4.527,0.439 c1.099,0.717,1.853,1.818,2.123,3.102c0.27,1.284,0.024,2.596-0.692,3.695c-0.717,1.099-1.818,1.853-3.102,2.123 C42.672,46.878,42.33,46.913,41.99,46.913z"/><g><path fill="#472b29" d="M38,44.645c-0.085,0-0.168-0.043-0.214-0.122c-0.972-1.626-0.934-3.621,0.101-5.207 c0.076-0.116,0.23-0.148,0.346-0.073c0.116,0.075,0.148,0.23,0.073,0.346c-0.929,1.424-0.964,3.217-0.091,4.677 c0.071,0.118,0.032,0.272-0.086,0.343C38.088,44.634,38.044,44.645,38,44.645z"/></g><g><circle cx="42" cy="53" r="3" fill="#ee3e54"/><path fill="#472b29" d="M41.994,56.251c-0.624,0-1.234-0.18-1.769-0.529c-0.727-0.474-1.226-1.203-1.405-2.053 c-0.179-0.85-0.016-1.718,0.458-2.445c0.474-0.727,1.203-1.226,2.053-1.405c0.848-0.179,1.717-0.016,2.445,0.458 c0.727,0.474,1.226,1.203,1.405,2.053c0.179,0.85,0.016,1.718-0.458,2.445v0c-0.474,0.727-1.203,1.226-2.053,1.405 C42.445,56.228,42.218,56.251,41.994,56.251z M42.005,50.249c-0.19,0-0.381,0.02-0.572,0.06c-0.719,0.151-1.336,0.573-1.737,1.189 c-0.401,0.615-0.539,1.35-0.388,2.069c0.151,0.719,0.574,1.336,1.189,1.737c0.615,0.401,1.348,0.539,2.068,0.388 c0.719-0.151,1.336-0.573,1.737-1.189v0c0.401-0.615,0.539-1.35,0.388-2.069c-0.151-0.719-0.574-1.336-1.189-1.737 C43.05,50.402,42.533,50.249,42.005,50.249z"/></g><g><path fill="#472b29" d="M41.99,57.913c-0.942,0-1.865-0.272-2.673-0.799c-0.116-0.075-0.148-0.23-0.073-0.346 c0.076-0.116,0.23-0.148,0.346-0.073c0.985,0.643,2.163,0.865,3.318,0.622c1.153-0.243,2.143-0.92,2.786-1.907 c0.644-0.987,0.865-2.166,0.622-3.319c-0.243-1.153-0.92-2.143-1.907-2.786c-1.208-0.788-2.729-0.935-4.066-0.394 c-0.13,0.052-0.274-0.01-0.326-0.138c-0.052-0.128,0.01-0.274,0.138-0.325c1.489-0.602,3.182-0.438,4.527,0.439 c1.099,0.717,1.853,1.818,2.123,3.102c0.27,1.284,0.024,2.596-0.692,3.695c-0.717,1.099-1.818,1.853-3.102,2.123 C42.672,57.878,42.33,57.913,41.99,57.913z"/></g><g><path fill="#472b29" d="M38,55.645c-0.085,0-0.168-0.043-0.214-0.122c-0.972-1.626-0.934-3.621,0.101-5.207 c0.076-0.116,0.23-0.148,0.346-0.073c0.116,0.075,0.148,0.23,0.073,0.346c-0.929,1.424-0.964,3.217-0.091,4.677 c0.071,0.118,0.032,0.272-0.086,0.343C38.088,55.634,38.044,55.645,38,55.645z"/></g><g><circle cx="42" cy="64" r="3" fill="#eab436"/><path fill="#472b29" d="M41.994,67.251c-0.624,0-1.234-0.18-1.769-0.529c-0.727-0.474-1.226-1.203-1.405-2.053 c-0.179-0.85-0.016-1.718,0.458-2.445c0.474-0.727,1.203-1.226,2.053-1.405c0.848-0.179,1.717-0.016,2.445,0.458 c0.727,0.474,1.226,1.203,1.405,2.053c0.179,0.85,0.016,1.718-0.458,2.445v0c-0.474,0.727-1.203,1.226-2.053,1.405 C42.445,67.228,42.218,67.251,41.994,67.251z M42.005,61.249c-0.19,0-0.381,0.02-0.572,0.06c-0.719,0.151-1.336,0.573-1.737,1.189 c-0.401,0.615-0.539,1.35-0.388,2.069c0.151,0.719,0.574,1.336,1.189,1.737c0.615,0.401,1.348,0.539,2.068,0.388 c0.719-0.151,1.336-0.573,1.737-1.189v0c0.401-0.615,0.539-1.35,0.388-2.069c-0.151-0.719-0.574-1.336-1.189-1.737 C43.05,61.402,42.533,61.249,42.005,61.249z"/></g><g><path fill="#472b29" d="M41.99,68.913c-0.942,0-1.865-0.272-2.673-0.799c-0.116-0.075-0.148-0.23-0.073-0.346 c0.076-0.116,0.23-0.148,0.346-0.073c0.985,0.643,2.163,0.865,3.318,0.622c1.153-0.243,2.143-0.92,2.786-1.907 c0.644-0.987,0.865-2.166,0.622-3.319c-0.243-1.153-0.92-2.143-1.907-2.786c-1.208-0.788-2.729-0.935-4.066-0.394 c-0.13,0.052-0.274-0.01-0.326-0.138c-0.052-0.128,0.01-0.274,0.138-0.325c1.489-0.602,3.182-0.438,4.527,0.439 c1.099,0.717,1.853,1.818,2.123,3.102c0.27,1.284,0.024,2.596-0.692,3.695c-0.717,1.099-1.818,1.853-3.102,2.123 C42.672,68.878,42.33,68.913,41.99,68.913z"/></g><g><path fill="#472b29" d="M38,66.645c-0.085,0-0.168-0.043-0.214-0.122c-0.972-1.626-0.934-3.621,0.101-5.207 c0.076-0.116,0.23-0.148,0.346-0.073c0.116,0.075,0.148,0.23,0.073,0.346c-0.929,1.424-0.964,3.217-0.091,4.677 c0.071,0.118,0.032,0.272-0.086,0.343C38.088,66.634,38.044,66.645,38,66.645z"/></g><g><path fill="#472b29" d="M67.5,43h-17c-0.276,0-0.5-0.224-0.5-0.5s0.224-0.5,0.5-0.5h17c0.276,0,0.5,0.224,0.5,0.5 S67.776,43,67.5,43z"/></g><g><path fill="#472b29" d="M67.5,53h-17c-0.276,0-0.5-0.224-0.5-0.5s0.224-0.5,0.5-0.5h17c0.276,0,0.5,0.224,0.5,0.5 S67.776,53,67.5,53z"/></g><g><path fill="#472b29" d="M67.5,64h-17c-0.276,0-0.5-0.224-0.5-0.5s0.224-0.5,0.5-0.5h17c0.276,0,0.5,0.224,0.5,0.5 S67.776,64,67.5,64z"/></g><g><path fill="#472b29" d="M68.625,32.4c2.743,0,4.975,2.232,4.975,4.975v32.25c0,2.743-2.232,4.975-4.975,4.975h-32.25 c-2.743,0-4.975-2.232-4.975-4.975v-32.25c0-2.743,2.232-4.975,4.975-4.975H68.625 M68.625,31h-32.25 C32.854,31,30,33.854,30,37.375v32.25C30,73.146,32.854,76,36.375,76h32.25C72.146,76,75,73.146,75,69.625v-32.25 C75,33.854,72.146,31,68.625,31L68.625,31z"/></g><g><path fill="#472b29" d="M61.5,35h-7c-0.276,0-0.5-0.224-0.5-0.5s0.224-0.5,0.5-0.5h7c0.276,0,0.5,0.224,0.5,0.5 S61.776,35,61.5,35z"/></g><g><path fill="#472b29" d="M33.5,43c-0.276,0-0.5-0.224-0.5-0.5v-4.508C33,35.791,34.942,34,37.33,34H51.5 c0.276,0,0.5,0.224,0.5,0.5S51.776,35,51.5,35H37.33C35.494,35,34,36.342,34,37.992V42.5C34,42.776,33.776,43,33.5,43z"/></g><g><path fill="#472b29" d="M71.5,60c-0.276,0-0.5-0.224-0.5-0.5V37.992C71,36.342,69.829,35,68.389,35H65.5 c-0.276,0-0.5-0.224-0.5-0.5s0.224-0.5,0.5-0.5h2.889C70.38,34,72,35.791,72,37.992V59.5C72,59.776,71.776,60,71.5,60z"/></g><g><path fill="#472b29" d="M47.5,73H37.276C34.918,73,33,71.209,33,69.008V48.5c0-0.276,0.224-0.5,0.5-0.5s0.5,0.224,0.5,0.5 v20.508C34,70.658,35.47,72,37.276,72H47.5c0.276,0,0.5,0.224,0.5,0.5S47.776,73,47.5,73z"/></g><g><path fill="#472b29" d="M67.724,73H50.5c-0.276,0-0.5-0.224-0.5-0.5s0.224-0.5,0.5-0.5h17.224 C69.53,72,71,70.658,71,69.008V62.5c0-0.276,0.224-0.5,0.5-0.5s0.5,0.224,0.5,0.5v6.508C72,71.209,70.082,73,67.724,73z"/></g><g><path fill="#fdfcef" d="M24,80h-3.003c-1.933-0.053-3.5-1.62-3.5-3.553c0-1.781,1.335-3.234,3.055-3.455 c-0.028-0.179-0.055-0.358-0.055-0.545c0-1.933,1.567-3.5,3.5-3.5c1.032,0,1.95,0.455,2.59,1.165 c0.384-1.808,1.987-3.165,3.91-3.165c2.209,0,4,1.791,4,4c0,0.191-0.03,0.374-0.056,0.558c0.428-0.344,0.965-0.558,1.556-0.558 c1.228,0,2.245,0.887,2.455,2.055c0.179-0.028,0.358-0.055,0.545-0.055c1.933,0,3.5,1.567,3.5,3.5s-1.567,3.5-3.5,3.553H31l0,0 H24L24,80z"/><path fill="#472b29" d="M22.747,75.447c0.138,0,0.25-0.112,0.25-0.25c0-1.223-0.995-2.218-2.218-2.218 c-0.034,0.009-0.737-0.001-1.244,0.136c-0.133,0.036-0.212,0.173-0.176,0.306c0.036,0.134,0.173,0.213,0.306,0.176 c0.444-0.12,1.1-0.12,1.113-0.118c0.948,0,1.719,0.771,1.719,1.718C22.497,75.335,22.609,75.447,22.747,75.447z"/><circle cx="29.5" cy="79.5" r=".5" fill="#472b29"/><path fill="#472b29" d="M17.165,77.157C17.67,78.889,19.369,80,21.173,80h3.324c0.276,0,0.5-0.224,0.5-0.5 s-0.224-0.5-0.5-0.5l-3.395,0c-1.243,0-2.435-0.701-2.886-1.859c-0.755-1.939,0.536-3.861,2.399-4.1 c0.134-0.018,0.255-0.088,0.336-0.196s0.115-0.244,0.094-0.377c-0.024-0.153-0.049-0.308-0.049-0.468c0-1.654,1.346-3,3-3 c0.85,0,1.638,0.355,2.219,1c0.125,0.139,0.321,0.198,0.5,0.148c0.182-0.049,0.321-0.195,0.36-0.379 C27.417,68.165,28.856,67,30.497,67c1.93,0,3.5,1.57,3.5,3.5c0,0.143-0.021,0.28-0.041,0.418 c-0.029,0.203,0.063,0.438,0.242,0.54c0.179,0.102,0.396,0.118,0.556-0.01C35.118,71.155,35.548,71,35.997,71 c0.966,0,1.792,0.691,1.963,1.644c0.048,0.267,0.296,0.446,0.569,0.405C38.682,73.025,38.837,73,38.997,73 c1.97,0,3.503,1.908,2.846,3.974C41.447,78.218,40.206,79,38.901,79l-7.404,0c-0.276,0-0.5,0.224-0.5,0.5s0.224,0.5,0.5,0.5 h7.343c1.92,0,3.687-1.282,4.071-3.163C43.436,74.267,41.476,72,38.997,72c-0.059,0-0.116,0.002-0.174,0.006 C38.409,70.82,37.286,70,35.997,70c-0.349,0-0.689,0.061-1.011,0.18C34.821,67.847,32.87,66,30.497,66 c-1.831,0-3.466,1.127-4.153,2.774C25.663,68.276,24.842,68,23.997,68c-2.206,0-4,1.794-4,4c0,0.048,0.001,0.095,0.004,0.142 C17.899,72.682,16.497,74.869,17.165,77.157z"/><path fill="#472b29" d="M26.497,79c0.159,0,0.841,0,1,0c0.276,0,0.5,0.224,0.5,0.5c0,0.276-0.224,0.5-0.5,0.5 c-0.159,0-0.841,0-1,0c-0.276,0-0.5-0.224-0.5-0.5C25.997,79.224,26.221,79,26.497,79z"/></g></g></svg>